<svg width="76" height="116" viewBox="0 0 76 116" fill="none" xmlns="http://www.w3.org/2000/svg">
<path fill-rule="evenodd" clip-rule="evenodd" d="M60.7202 42.0358C49.2002 39.8091 40.4006 37.6891 38.4673 37.2091L38.454 37.0625L38.4406 37.0225C40.4673 36.5958 50.4142 34.7025 61.2002 35.6891C80.6672 37.4758 78.4142 11.2358 62.9072 15.7958C68.5472 1.0091 46.734 -4.9242 42.9873 14.4491C40.7473 26.0491 38.6006 34.8758 38.1473 36.7292C38.1073 36.7158 38.0673 36.7158 38.0273 36.7158L37.974 36.7292C37.5606 34.7158 35.654 24.7692 36.6406 13.9692C38.4273 -5.49751 12.1873 -3.24422 16.7473 12.2624C1.94731 6.6224 -3.97269 28.4224 15.4006 32.1691C26.9873 34.4224 35.814 36.5558 37.6806 37.0091C37.6673 37.0491 37.654 37.1025 37.6673 37.1425V37.1958C35.614 37.6225 25.6806 39.5158 14.9073 38.5291C-4.54599 36.7425 -2.30599 62.9824 13.2006 58.4224C7.56061 73.2091 29.374 79.1291 33.1206 59.7558C35.1073 49.5558 37.0006 41.4891 37.734 38.4358C38.0406 44.4491 37.4273 50.4758 36.1873 56.3424C34.8673 62.6491 32.8806 68.8091 30.8006 74.9425C28.6273 81.0358 26.6273 87.4225 25.8006 94.009C24.9073 100.596 25.054 107.382 26.3473 113.969V113.982L26.3606 114.049C26.6006 115.076 27.6273 115.716 28.654 115.476C29.694 115.223 30.334 114.196 30.094 113.169C28.654 107.036 28.254 100.676 28.8673 94.369C29.1606 91.209 29.694 88.0625 30.4273 84.9558C31.1473 81.8358 32.094 78.7824 33.0273 75.6491C34.8806 69.4091 36.6406 63.1025 37.7206 56.6358C38.6006 51.4625 39.0006 46.1958 38.7606 40.9558C39.4006 45.2225 40.174 52.5158 39.4673 60.2491C37.6806 79.7024 63.9342 77.4625 59.3742 61.9558C74.1602 67.5958 80.0942 45.7825 60.7202 42.0358Z" fill="#00AB37"/>
</svg>
